<svg id="Layer_1" data-name="Layer 1" xmlns="http://www.w3.org/2000/svg" viewBox="0 0 600 600"><defs><style>.cls-1{fill:#e1d9a2;}.cls-2{fill:#a5dad4;}.cls-3{fill:#3fa9f5;}</style></defs><title>logo</title><path class="cls-1" d="M162.89,344c-4.38,0-21,24.6-23.81,30.08-6.14,12.12.74,16.7,12.19,20.26.83-3.61,17.27-26.73,19.66-29C175.25,356.19,176.05,344,162.89,344Z"/><path class="cls-1" d="M203.31,380.36c-13,1.25-32.7,28.51-30.1,35.75,3.17,8.82,12.84,10.36,21,8.86C198,419.5,227.57,378,203.31,380.36Z"/><path class="cls-1" d="M247.81,414c-14.27,1-23.09,16.76-30.7,27.76.71,8.6,6.87,15.59,15.69,16.23C236.73,453.43,273.4,412.15,247.81,414Z"/><path class="cls-1" d="M312.84,481c5.64,1.07,10.33-1.76,14.08-5.77a106.58,106.58,0,0,1-14.73-10.8C313.41,465.94,318.1,472.12,312.84,481Z"/><path class="cls-1" d="M273,452.46c-1.17,3.31-13.46,17.75-16.25,21.09,4.71,8.08,8.13,11,10.8,10.61,5.83-.91,18.34-20.35,16.77-26.81C283.59,454.47,273.35,451.4,273,452.46Z"/><path class="cls-2" d="M461.12,108a4.87,4.87,0,0,0-6.46-1.78l-46.41,26.83a4.87,4.87,0,0,0-1.78,6.46l105.66,183a4.87,4.87,0,0,0,6.46,1.78L565,297.44a4.87,4.87,0,0,0,1.78-6.46Z"/><path class="cls-2" d="M191.09,132l-46.41-26.83a4.87,4.87,0,0,0-6.46,1.78l-105.66,183a4.87,4.87,0,0,0,1.78,6.46l46.43,26.81v0a4.77,4.77,0,0,0,3.58.4,4.71,4.71,0,0,0,2.88-2.18l105.66-183A4.87,4.87,0,0,0,191.09,132Z"/><path class="cls-1" d="M331.51,258.68,291,264.36c-18.73,45.81-54.14,61.4-100.83,44.88-8-2.82-12.86-10.4-9.58-18.88l31.28-81.05a14.1,14.1,0,0,1,5.27-6.62l13.28-9-25.79-18.81L122.85,316.46l11.75,13C152.55,302,201,317.39,202.17,352c22-1.44,38.78,12,38.19,34.32,27.34-5,49.66,12.11,43.28,40.21,1.08.18,2.17.41,3.24.68,2-12.78,19-16.51,26-5.36,15.36,24.25,32.42,31.71,37,33.36,6.32-.07,10.32-7.28,12.44-12.37-19.4-12.09-34.57-23.4-50.25-40.29-12.72-13.67,8.06-33,20.79-19.34,15.61,16.81,30.47,27,49.91,38.85,4.18-.3,10.36-.93,14.06-3-24.66-12.77-43.86-33.87-60.21-55.9-11.11-15,11.67-31.88,22.79-16.89,15.8,21.28,35,42.71,60.54,52,11,2.79,22.25-12.66,19.22-24.73C388.71,345,361.06,304.4,331.51,258.68Z"/><path class="cls-1" d="M304.8,177.54l-68.12,46.11-24.09,62.47c30.54,6,45.24-11.86,54.58-39.2a14.2,14.2,0,0,1,12-9.57l57.45-8c6.57-.91,11.24,2.28,14.6,7.49,27.92,43.29,52.95,82.06,96.06,108.59L473.32,312l-79-136.77Z"/><path class="cls-3" d="M485.91,95.33a33.1,33.1,0,0,0-45.18-12.09L394.24,110a33.12,33.12,0,0,0-14.94,38.79l-79.1,2a14.11,14.11,0,0,0-8.07,2.75l-36.6,24.77-36.59-26.69A33.09,33.09,0,0,0,205.54,109L159.06,82.18a33.1,33.1,0,0,0-45.19,12.09L8.23,277.3a33.09,33.09,0,0,0,12.09,45.18l46.48,26.81a33.1,33.1,0,0,0,40.67-6l11.2,11.8c-22.45,31.37-6.47,59.16,27,68.63,5.82,21,24,32.26,45.23,31.66a45.37,45.37,0,0,0,40.76,32.49c15.66,26.77,36.72,35,60.51,16.25,24.69,15.45,50.47,3.95,64.21-19.39,17.39-2.81,28.29-17.68,33.91-33.29,15.52-1.84,30.21-8,36.64-23.39,28.3-3.78,47.19-32.29,40-60l21.92-28A33.09,33.09,0,0,0,533,350.35l46.48-26.81a33.09,33.09,0,0,0,12.09-45.19ZM87.43,323a4.71,4.71,0,0,1-2.88,2.18,4.77,4.77,0,0,1-3.58-.4v0L34.56,297.92a4.87,4.87,0,0,1-1.78-6.46l105.66-183a4.87,4.87,0,0,1,6.46-1.78l46.41,26.83a4.87,4.87,0,0,1,1.78,6.46Zm64.06,72.9c-11.45-3.56-18.33-8.13-12.19-20.26,2.78-5.49,19.43-30.1,23.81-30.08,13.16,0,12.36,12.19,8,21.34C168.76,369.14,152.32,392.26,151.49,395.87Zm43,30.64c-8.19,1.49-17.87,0-21-8.86-2.6-7.24,17.15-34.5,30.1-35.75C227.8,379.57,198.26,421,194.46,426.52Zm38.56,33c-8.83-.64-15-7.63-15.69-16.23,7.61-11,16.43-26.74,30.7-27.76C273.63,413.69,237,455,233,459.51Zm34.72,26.2c-2.67.42-6.09-2.53-10.8-10.61,2.79-3.34,15.08-17.78,16.25-21.09.38-1.06,10.62,2,11.32,4.89C286.08,465.36,273.57,484.79,267.74,485.71Zm45.32-3.21c5.25-8.83.57-15-.65-16.57a106.58,106.58,0,0,0,14.73,10.8C323.39,480.74,318.71,483.57,313.06,482.5Zm107.16-82.66c-25.54-9.28-44.74-30.71-60.54-52-11.11-15-33.9,1.91-22.79,16.89,16.35,22,35.55,43.13,60.21,55.9-3.7,2-9.88,2.67-14.06,3-19.44-11.86-34.3-22-49.91-38.85-12.72-13.67-33.51,5.67-20.79,19.34C328,421,343.19,432.3,362.59,444.39c-2.13,5.09-6.12,12.3-12.44,12.37-4.61-1.65-21.67-9.11-37-33.36-7-11.15-24-7.42-26,5.36-1.07-.27-2.15-.49-3.24-.68,6.37-28.1-15.94-45.17-43.28-40.21.59-22.32-16.19-35.76-38.19-34.32-1.19-34.62-49.62-50-67.57-22.55l-11.75-13,81.74-141.57,25.79,18.81-13.28,9a14.1,14.1,0,0,0-5.27,6.62L180.77,291.9c-3.28,8.48,1.6,16.06,9.58,18.88,46.69,16.52,82.09.93,100.83-44.88l40.55-5.68c29.56,45.71,57.2,86.3,107.71,114.89C442.47,387.17,431.26,402.63,420.22,399.84Zm27.24-52.91c-43.11-26.53-68.14-65.31-96.06-108.59-3.36-5.2-8-8.39-14.6-7.49l-57.45,8a14.2,14.2,0,0,0-12,9.57c-9.34,27.34-24,45.16-54.58,39.2l24.09-62.47L305,179.08l89.55-2.28,79,136.77ZM565.23,299l-46.41,26.83a4.87,4.87,0,0,1-6.46-1.78l-105.66-183a4.87,4.87,0,0,1,1.78-6.46l46.41-26.83a4.87,4.87,0,0,1,6.46,1.78L567,292.52A4.87,4.87,0,0,1,565.23,299Z"/></svg>